Coordinates
version=1
nRows=34
nColumns=38
inDegrees=no

Units are S.I. units (second, meters, Newtons, ...)
If the header above contains a line with 'inDegrees', this indicates whether rotational values are in degrees (yes) or radians (no).

endheader
time	pelvis_tilt	pelvis_list	pelvis_rotation	pelvis_tx	pelvis_ty	pelvis_tz	hip_flexion_r	hip_adduction_r	hip_rotation_r	knee_angle_r	ankle_angle_r	subtalar_angle_r	mtp_angle_r	hip_flexion_l	hip_adduction_l	hip_rotation_l	knee_angle_l	ankle_angle_l	subtalar_angle_l	mtp_angle_l	lumbar_extension	lumbar_bending	lumbar_rotation	arm_flex_r	arm_add_r	arm_rot_r	elbow_flex_r	pro_sup_r	wrist_flex_r	wrist_dev_r	arm_flex_l	arm_add_l	arm_rot_l	elbow_flex_l	pro_sup_l	wrist_flex_l	wrist_dev_l
0	0.948916	1.44038	0.725271	0.707891	-0.812928	1.06558	0.362183	0.00847728	0.0836864	0.649659	-0.145021	0	0	0.00963448	-0.155514	-0.318217	0.35776	-0.202684	0	0	-0.372889	0.102629	-0.0329298	0.605803	-0.40574	0.46088	0.812288	1.22794	0	0	0.287482	-0.266635	0.104254	1.11657	1.48692	0	0
0.01	0.940002	1.43713	0.734174	0.70794	-0.810763	1.06548	0.371492	0.0110361	0.0827936	0.637537	-0.146514	0	0	0.00969728	-0.15661	-0.315932	0.354932	-0.202943	0	0	-0.373133	0.104028	-0.0332862	0.597989	-0.409603	0.457575	0.82637	1.22758	0	0	0.278589	-0.267475	0.0989704	1.12749	1.49062	0	0
0.02	0.933861	1.43386	0.740369	0.708057	-0.808423	1.06537	0.379961	0.0139449	0.0821269	0.624495	-0.149415	0	0	0.00929506	-0.15806	-0.31371	0.351884	-0.203091	0	0	-0.373243	0.105853	-0.0330836	0.589153	-0.413944	0.453717	0.841148	1.22735	0	0	0.269985	-0.267657	0.0938549	1.137	1.49405	0	0
0.03	0.928242	1.43087	0.745847	0.708248	-0.80598	1.06526	0.387686	0.0168785	0.0817625	0.610814	-0.153685	0	0	0.00835029	-0.159321	-0.311819	0.348762	-0.20297	0	0	-0.373512	0.107485	-0.0323989	0.579596	-0.418467	0.449079	0.85635	1.22715	0	0	0.261518	-0.267993	0.0894044	1.14617	1.49716	0	0
0.04	0.92103	1.42786	0.752772	0.708532	-0.803431	1.06509	0.395353	0.0199451	0.0818055	0.596912	-0.159994	0	0	0.00754389	-0.160409	-0.309822	0.346065	-0.202563	0	0	-0.373328	0.108873	-0.0312749	0.569131	-0.422798	0.443511	0.871428	1.22693	0	0	0.253125	-0.268309	0.0853642	1.15486	1.50024	0	0
0.05	0.911978	1.42501	0.761547	0.708888	-0.800792	1.06487	0.402863	0.0229438	0.0822438	0.582781	-0.168252	0	0	0.00648892	-0.16109	-0.307801	0.342869	-0.202315	0	0	-0.372669	0.109887	-0.0298138	0.558012	-0.427155	0.437745	0.886203	1.22663	0	0	0.244986	-0.268557	0.0818475	1.16303	1.5035	0	0
0.06	0.903297	1.42226	0.770072	0.709307	-0.798022	1.06463	0.409606	0.0259295	0.0823007	0.567739	-0.177597	0	0	0.00492441	-0.161722	-0.305807	0.338808	-0.202202	0	0	-0.371708	0.110661	-0.0282582	0.546388	-0.431479	0.432287	0.900671	1.22676	0	0	0.236756	-0.268975	0.0786919	1.17109	1.50695	0	0
0.07	0.896237	1.41986	0.777344	0.70976	-0.795109	1.06437	0.415278	0.0284952	0.0818127	0.552323	-0.186887	0	0	0.00266975	-0.162411	-0.304097	0.334332	-0.202043	0	0	-0.370661	0.111193	-0.0271004	0.534258	-0.435405	0.426634	0.914951	1.22731	0	0	0.228187	-0.269528	0.0753875	1.17909	1.51071	0	0
0.08	0.889962	1.41782	0.784011	0.710293	-0.7921	1.06409	0.419935	0.0310519	0.0810138	0.536947	-0.194687	0	0	0.000281411	-0.163111	-0.302617	0.33053	-0.201656	0	0	-0.369661	0.111444	-0.0266112	0.52234	-0.438484	0.421061	0.928769	1.228	0	0	0.219081	-0.270427	0.0716034	1.1873	1.51455	0	0
0.09	0.882049	1.4159	0.792497	0.710865	-0.78896	1.06373	0.423897	0.033217	0.0803199	0.521675	-0.200667	0	0	-0.00187814	-0.163623	-0.301064	0.327197	-0.201178	0	0	-0.36837	0.111523	-0.0272615	0.51077	-0.440972	0.416336	0.942523	1.2286	0	0	0.208604	-0.271523	0.0663401	1.19623	1.51834	0	0
0.1	0.87455	1.41457	0.800801	0.711475	-0.785705	1.06334	0.426584	0.0347886	0.0792599	0.506425	-0.204342	0	0	-0.00454502	-0.163894	-0.299729	0.324174	-0.200482	0	0	-0.368045	0.111523	-0.0296602	0.500427	-0.442472	0.412635	0.956456	1.22941	0	0	0.196245	-0.273362	0.0590333	1.20734	1.52187	0	0
0.11	0.869085	1.41404	0.807486	0.71211	-0.782297	1.06292	0.427488	0.0357604	0.0782295	0.491401	-0.205872	0	0	-0.00802096	-0.163923	-0.298413	0.321543	-0.199587	0	0	-0.367741	0.111184	-0.0321629	0.489691	-0.443757	0.408948	0.969515	1.23085	0	0	0.184101	-0.275353	0.0524595	1.21776	1.52566	0	0
0.12	0.863505	1.41414	0.815117	0.712701	-0.778728	1.06245	0.427099	0.0358557	0.0768291	0.477218	-0.20632	0	0	-0.0120295	-0.163721	-0.297472	0.318778	-0.198796	0	0	-0.367395	0.110614	-0.0357078	0.47882	-0.4446	0.405595	0.981927	1.2328	0	0	0.171402	-0.277423	0.0455346	1.22835	1.52949	0	0
0.13	0.858249	1.41485	0.822947	0.713325	-0.775011	1.06191	0.425338	0.035317	0.0742661	0.463316	-0.207552	0	0	-0.0161811	-0.163538	-0.297177	0.317036	-0.197847	0	0	-0.367914	0.110262	-0.0409232	0.468325	-0.4447	0.402502	0.995206	1.23502	0	0	0.157172	-0.280205	0.0372894	1.24055	1.53199	0	0
0.14	0.853822	1.41608	0.830524	0.713963	-0.77109	1.06133	0.422333	0.0345329	0.0708357	0.450461	-0.210206	0	0	-0.020517	-0.163503	-0.297526	0.316232	-0.196799	0	0	-0.368421	0.109704	-0.0460113	0.456369	-0.445093	0.398244	1.00928	1.23682	0	0	0.143198	-0.283087	0.0301057	1.25211	1.53374	0	0
0.15	0.849945	1.41788	0.838117	0.714631	-0.766939	1.06073	0.418056	0.0333764	0.0662315	0.438582	-0.214298	0	0	-0.0249744	-0.163552	-0.298259	0.316385	-0.195776	0	0	-0.368824	0.108896	-0.0511349	0.442931	-0.445529	0.392839	1.02397	1.23831	0	0	0.12932	-0.286131	0.0238018	1.26306	1.53551	0	0
0.16	0.844404	1.42031	0.847972	0.715257	-0.762753	1.06009	0.412936	0.031478	0.0614928	0.427918	-0.219679	0	0	-0.0291085	-0.163015	-0.297471	0.317427	-0.194571	0	0	-0.369204	0.107634	-0.0563573	0.428721	-0.446062	0.386746	1.03881	1.23984	0	0	0.116125	-0.289223	0.0184531	1.27321	1.53728	0	0
0.17	0.836633	1.42345	0.860351	0.715877	-0.758561	1.05945	0.407203	0.0288447	0.0567108	0.419369	-0.227296	0	0	-0.0330404	-0.161713	-0.295552	0.319364	-0.193207	0	0	-0.369627	0.105619	-0.0613464	0.413822	-0.44661	0.380099	1.05341	1.24168	0	0	0.103756	-0.292418	0.0141072	1.28243	1.53902	0	0
0.18	0.829791	1.42734	0.872025	0.716576	-0.754156	1.0588	0.400734	0.0258931	0.0504851	0.414478	-0.23832	0	0	-0.0376859	-0.160395	-0.293943	0.321826	-0.191725	0	0	-0.370048	0.103323	-0.066137	0.397729	-0.446806	0.372572	1.06788	1.24367	0	0	0.0915966	-0.295729	0.0103946	1.29053	1.54139	0	0
0.19	0.823889	1.43167	0.882848	0.717375	-0.749514	1.05816	0.393369	0.0230844	0.043278	0.411982	-0.251636	0	0	-0.0428226	-0.159295	-0.292723	0.32498	-0.190126	0	0	-0.370412	0.10079	-0.0706422	0.381224	-0.446606	0.365009	1.08167	1.24561	0	0	0.079536	-0.299271	0.00732575	1.29807	1.54473	0	0
0.2	0.813719	1.43599	0.89801	0.71823	-0.74472	1.05742	0.385809	0.0201964	0.0362532	0.410236	-0.264628	0	0	-0.0473882	-0.157983	-0.291161	0.328805	-0.188469	0	0	-0.370079	0.0979178	-0.0750133	0.364413	-0.446079	0.357326	1.09499	1.24764	0	0	0.0672139	-0.30271	0.00433899	1.30527	1.54764	0	0
0.21	0.799467	1.44065	0.917435	0.719116	-0.739801	1.05664	0.377425	0.0166549	0.0290017	0.407498	-0.275187	0	0	-0.0515513	-0.156167	-0.288854	0.333485	-0.186747	0	0	-0.369056	0.0943615	-0.0792425	0.346298	-0.445742	0.349625	1.1085	1.25025	0	0	0.0545736	-0.306186	0.00157038	1.31184	1.54811	0	0
0.22	0.784575	1.44608	0.937721	0.720029	-0.734753	1.05589	0.367853	0.0120848	0.0208814	0.404143	-0.284439	0	0	-0.0558864	-0.153986	-0.286009	0.339318	-0.184767	0	0	-0.368429	0.0900836	-0.0830058	0.326921	-0.445213	0.340675	1.12217	1.25332	0	0	0.0428208	-0.310359	0.000455716	1.31774	1.54824	0	0
0.23	0.771445	1.45238	0.956547	0.720982	-0.72958	1.05521	0.356685	0.00716965	0.0114048	0.39899	-0.291179	0	0	-0.060419	-0.151892	-0.28294	0.346902	-0.182333	0	0	-0.368956	0.0849818	-0.0863263	0.306449	-0.444142	0.330091	1.13614	1.25648	0	0	0.0325869	-0.315942	0.00180625	1.3234	1.54886	0	0
0.24	0.756373	1.45838	0.977341	0.722012	-0.724316	1.05454	0.345682	0.00200854	0.00131011	0.393817	-0.291696	0	0	-0.0638048	-0.150176	-0.279034	0.356088	-0.180442	0	0	-0.368465	0.0799845	-0.0899471	0.286718	-0.44252	0.321251	1.14829	1.25832	0	0	0.0214772	-0.320945	0.00169546	1.3284	1.55048	0	0
0.25	0.741303	1.46383	0.998189	0.723149	-0.719002	1.05399	0.33469	-0.0026951	-0.0103149	0.389145	-0.288036	0	0	-0.0663102	-0.148941	-0.273536	0.365596	-0.179322	0	0	-0.367407	0.0754389	-0.0934856	0.267485	-0.4406	0.313635	1.15925	1.25947	0	0	0.00972814	-0.32526	0.000146006	1.33286	1.55267	0	0
0.26	0.728485	1.46809	1.01665	0.724404	-0.713725	1.0536	0.324095	-0.00645821	-0.0226153	0.385135	-0.284379	0	0	-0.0667788	-0.148744	-0.266037	0.376494	-0.179019	0	0	-0.36576	0.0717054	-0.096907	0.249719	-0.438399	0.308117	1.16837	1.26003	0	0	-0.00193031	-0.32962	-0.00151539	1.33641	1.55421	0	0
0.27	0.731281	1.47182	1.01976	0.725678	-0.708609	1.05354	0.313585	-0.0088785	-0.0363978	0.382742	-0.281646	0	0	-0.0653887	-0.150957	-0.258255	0.391254	-0.177747	0	0	-0.366292	0.0693143	-0.0969049	0.228544	-0.435678	0.29513	1.17998	1.26749	0	0	-0.00925216	-0.334415	0.00140578	1.33842	1.55518	0	0
0.28	0.498456	1.46726	1.25488	0.728935	-0.702811	1.04828	0.34706	-0.0152807	-0.0158376	0.369791	-0.316231	0	0	-0.0411479	-0.138839	-0.258518	0.420631	-0.169017	0	0	-0.337025	0.0436988	-0.100449	0.195662	-0.424271	0.278646	1.1905	1.2749	0	0	-0.0266362	-0.349484	0.00645994	1.34465	1.55205	0	0
0.29	0.758646	1.47403	1.00229	0.728434	-0.698971	1.05392	0.301326	-0.00695769	-0.0586711	0.38676	-0.270367	0	0	-0.0527062	-0.161375	-0.24274	0.431435	-0.178054	0	0	-0.368462	0.0686913	-0.0929465	0.18841	-0.430222	0.268285	1.20308	1.2782	0	0	-0.0218727	-0.341579	0.00508342	1.34224	1.56424	0	0
0.3	0.774868	1.47355	0.989585	0.729863	-0.694512	1.05436	0.296682	-0.00425792	-0.0639105	0.38894	-0.267722	0	0	-0.0434781	-0.167274	-0.233513	0.453183	-0.180597	0	0	-0.369013	0.069447	-0.0911984	0.173224	-0.427731	0.260595	1.21079	1.28045	0	0	-0.0287636	-0.343871	0.0043776	1.34348	1.56817	0	0
0.31	0.786601	1.47321	0.980502	0.731284	-0.690262	1.05494	0.29142	-0.00171249	-0.0668571	0.389249	-0.265789	0	0	-0.0335177	-0.172375	-0.223584	0.475565	-0.184287	0	0	-0.369611	0.069668	-0.0893635	0.160144	-0.425178	0.254906	1.21665	1.28235	0	0	-0.0352696	-0.345683	0.00324139	1.34419	1.5708	0	0
0.32	0.791326	1.47338	0.977621	0.732722	-0.686148	1.05559	0.285414	0.000315751	-0.0690737	0.38723	-0.264775	0	0	-0.0228482	-0.176576	-0.214292	0.499275	-0.189652	0	0	-0.370323	0.0687278	-0.087406	0.1481	-0.422434	0.25003	1.22157	1.2843	0	0	-0.0414566	-0.347656	0.00224979	1.34493	1.5708	0	0
0.33	0.789323	1.47448	0.98087	0.734171	-0.682127	1.05633	0.278602	0.00140916	-0.0723949	0.383227	-0.265138	0	0	-0.0119589	-0.179621	-0.205886	0.52376	-0.196143	0	0	-0.371354	0.0666419	-0.0860421	0.137383	-0.419653	0.246773	1.22571	1.28612	0	0	-0.0478559	-0.349932	0.000766251	1.34584	1.5708	0	0
